<?xml version="1.0" standalone="no"?>
<!DOCTYPE svg PUBLIC "-//W3C//DTD SVG 20010904//EN"
 "http://www.w3.org/TR/2001/REC-SVG-20010904/DTD/svg10.dtd">
<svg version="1.0" xmlns="http://www.w3.org/2000/svg"
 width="260.000000pt" height="260.000000pt" viewBox="0 0 260.000000 260.000000"
 preserveAspectRatio="xMidYMid meet">
<metadata>
Created by potrace 1.14, written by Peter Selinger 2001-2017
</metadata>
<g transform="translate(0.000000,260.000000) scale(0.100000,-0.100000)"
fill="#000000" stroke="none">
<path d="M1169 2596 c-2 -2 -24 -6 -49 -10 -93 -12 -117 -18 -210 -47 -480
-153 -828 -564 -898 -1059 -8 -61 -9 -282 0 -350 70 -550 482 -989 1038 -1107
131 -27 383 -25 519 6 390 86 719 339 889 684 106 216 142 377 137 612 -2 77
-6 154 -9 172 -95 568 -521 994 -1091 1090 -39 6 -320 15 -326 9z m282 -206
c235 -35 463 -179 603 -379 136 -195 189 -408 162 -646 -35 -300 -235 -578
-514 -713 -118 -57 -242 -89 -350 -91 l-44 -1 40 45 c100 114 199 284 227 391
61 234 -70 447 -275 447 -130 0 -229 -78 -271 -215 -38 -122 -17 -241 70 -403
39 -74 142 -217 175 -244 21 -18 21 -34 -1 -27 -10 2 -45 7 -78 11 -126 13
-304 78 -412 151 -112 75 -226 201 -292 325 -38 71 -95 209 -86 209 3 0 1 10
-4 23 -13 33 -24 142 -23 216 4 251 95 466 271 642 151 151 341 243 546 265
33 4 61 8 63 9 5 4 128 -5 193 -15z"/>
</g>
</svg>
