<?xml version="1.0" encoding="utf-8"?>
<!-- Generator: Adobe Illustrator 26.3.1, SVG Export Plug-In . SVG Version: 6.00 Build 0)  -->
<svg version="1.1" id="Layer_1" xmlns="http://www.w3.org/2000/svg" xmlns:xlink="http://www.w3.org/1999/xlink" x="0px" y="0px"
	 viewBox="0 0 200.6 59" style="enable-background:new 0 0 200.6 59;" xml:space="preserve">
<style type="text/css">
	.st0{fill:#FFFFFF;}
	.st1{fill:#CC2229;}
</style>
<g>
	<g>
		<path class="st0" d="M200.6,0c-9.1,0-13,4.9-18,16.4C177.5,28.1,170.9,59,145.1,59H55.5C29.7,59,23.1,28.1,18,16.4
			C13,4.9,9.2,0,0,0H200.6z"/>
	</g>
	<path class="st1" d="M53.8,13.5c-8.4,0-15.1,6.8-15.1,15.1c0,8.4,6.8,15.1,15.1,15.1c8.4,0,15.1-6.8,15.1-15.1
		C68.9,20.3,62.2,13.5,53.8,13.5z M53.9,37.3c1.9-2.1,3.7-4.9,3.2-7.2c-0.4-2.4-2.2-3.1-3.3-3.1c-1.2,0-2.9,0.8-3.3,3.1
		c-0.5,2.3,1.4,5.2,3.2,7.2C47.8,37.3,43,32.5,43,26.6c0-5.9,4.8-10.8,10.8-10.8c5.9,0,10.8,4.8,10.8,10.8
		C64.6,32.5,59.8,37.3,53.9,37.3z"/>
	<g>
		<path class="st1" d="M115.7,37.7c-2.3,0-4.5-0.6-5.8-1.6c-1.7-1.2-2.7-3.5-2.7-6.4c0-5.5,2.7-8.2,8.3-8.2c5.6,0,8.3,2.7,8.3,8.3
			C123.7,35,121,37.7,115.7,37.7z M115.5,24.3c-3,0-4.3,1.6-4.3,5.4c0,3.7,1.4,5.4,4.4,5.4c3,0,4.3-1.7,4.3-5.4
			C119.8,25.9,118.5,24.3,115.5,24.3z"/>
		<g>
			<g>
				<path class="st1" d="M134.3,34.6c-2.2,0-2.9-0.1-3.5-0.6c-0.6-0.5-0.7-0.8-0.8-2.4v-7.9c0-0.8-0.7-1.5-1.5-1.5h-2v8.5
					c0,2.7,0.3,3.8,1.2,4.9c1,1.2,2.6,1.7,5,1.7h4.8v-2.7H134.3z"/>
			</g>
		</g>
		<g>
			<g>
				<g>
					<path class="st1" d="M155.4,22.2H153c-0.9,0-1.7,0.6-2.1,1.3l-6,13.8h2.4c0.9,0,1.8-0.6,2.1-1.3l0.9-2.2h6l1,2.2
						c0.4,0.8,1.2,1.3,2.1,1.3h2.5L155.4,22.2z M151.2,31.1l2.3-5.3l2.3,5.3H151.2z"/>
				</g>
			</g>
		</g>
		<g>
			<path class="st1" d="M141.1,22.2c-0.8,0-1.5,0.7-1.5,1.5v13.7h2c0.8,0,1.5-0.7,1.5-1.5V22.2H141.1z"/>
		</g>
		<g>
			<g>
				<path class="st1" d="M88,22.2c-0.9,0-1.7,0.6-2.1,1.3l-3.7,9.3l-4-9.3c-0.3-0.8-1.1-1.3-2.1-1.3h-2.4l6.7,15.1h1.9
					c0.9,0,1.7-0.5,2-1.3l6.3-13.9H88z"/>
			</g>
		</g>
		<path class="st1" d="M91.6,29.9c0,1.5,0.3,5.5,4,7c0.8,0.3,1.8,0.5,3.1,0.5h6v-2.7c0,0-4.6,0-4.6,0c-2.2,0-3.4-0.5-4-1.7
			c-0.2-0.5-0.4-1-0.4-1.7V31h8.7v-2.6h-8.7v-0.1c0.1-0.7,0.2-1.3,0.4-1.7c0.6-1.2,1.8-1.6,4-1.7c0,0,4.6,0,4.6,0v-2.7h-6
			c-1.3,0-2.2,0.1-3.1,0.5c-3.6,1.5-4,5.5-4,7V29.9z"/>
	</g>
</g>
</svg>
