<?xml version="1.0" encoding="utf-8"?>
<!-- Generator: Adobe Illustrator 26.3.1, SVG Export Plug-In . SVG Version: 6.00 Build 0)  -->
<svg version="1.1" id="Layer_1" xmlns="http://www.w3.org/2000/svg" xmlns:xlink="http://www.w3.org/1999/xlink" x="0px" y="0px"
	 viewBox="0 0 243.2 59.7" style="enable-background:new 0 0 243.2 59.7;" xml:space="preserve">
<style type="text/css">
	.st0{fill:#999899;}
</style>
<path class="st0" d="M59.7,29.8c0,16.5-13.4,29.8-29.8,29.8C13.4,59.7,0,46.3,0,29.8C0,13.4,13.4,0,29.8,0
	C46.3,0,59.7,13.4,59.7,29.8z M36.4,32.6c1,4.6-2.7,10.2-6.4,14.3c11.6-0.1,21.1-9.6,21.1-21.2c0-11.7-9.5-21.2-21.2-21.2
	C18.1,4.5,8.6,14,8.6,25.7c0,11.6,9.5,21.1,21.1,21.2c-3.7-4.1-7.4-9.7-6.4-14.3c0.8-4.7,4.2-6.2,6.5-6.1
	C32.1,26.5,35.6,28,36.4,32.6z"/>
<g>
	<path class="st0" d="M152,47.7c-4.5,0-8.8-1.1-11.5-3.1c-3.4-2.4-5.3-6.9-5.3-12.7c0-10.8,5.3-16.1,16.3-16.1
		c11,0,16.3,5.3,16.3,16.3C167.8,42.4,162.4,47.7,152,47.7z M151.5,21.2c-6,0-8.6,3.2-8.6,10.6c0,7.4,2.7,10.7,8.6,10.7
		c5.8,0,8.5-3.3,8.5-10.7C160.1,24.5,157.4,21.2,151.5,21.2z"/>
	<g>
		<g>
			<path class="st0" d="M188.6,41.6c-4.3,0-5.7-0.3-6.9-1.3c-1.1-1-1.4-1.7-1.6-4.7V20c0-1.6-1.3-2.9-3-2.9h-4v16.8
				c0,5.2,0.5,7.6,2.3,9.6c2,2.4,5,3.4,9.8,3.4h9.4v-5.3H188.6z"/>
		</g>
	</g>
	<g>
		<g>
			<g>
				<path class="st0" d="M230.2,17h-4.7c-1.8,0-3.4,1.1-4.1,2.6l-11.8,27.2h4.8c1.9,0,3.5-1.1,4.2-2.6l1.9-4.3h11.9l1.9,4.3
					c0.7,1.5,2.3,2.6,4.1,2.6h4.8L230.2,17z M221.9,34.7l4.5-10.5l4.5,10.5H221.9z"/>
			</g>
		</g>
	</g>
	<g>
		<path class="st0" d="M202,17c-1.6,0-3,1.3-3,2.9v27h3.9c1.7,0,3-1.3,3-2.9V17H202z"/>
	</g>
	<g>
		<g>
			<path class="st0" d="M97.4,17c-1.8,0-3.4,1.1-4.1,2.6L86,38l-7.8-18.3c-0.7-1.5-2.3-2.6-4.1-2.6h-4.8l13.2,29.8h3.8
				c1.8,0,3.3-1.1,4-2.5L102.6,17H97.4z"/>
		</g>
	</g>
	<path class="st0" d="M104.4,32.2c0,2.9,0.7,10.8,7.8,13.8c1.6,0.6,3.5,0.9,6.1,0.9h11.8v-5.3c0,0-9,0-9.1,0
		c-4.4-0.1-6.7-0.9-7.9-3.3c-0.4-0.9-0.7-2.1-0.8-3.4v-0.3h17.1v-5.1h-17.1v-0.3c0.1-1.4,0.4-2.5,0.8-3.4c1.2-2.4,3.5-3.3,7.9-3.3
		c0.1,0,9.1,0,9.1,0V17h-11.8c-2.6,0-4.4,0.3-6.1,0.9c-7.2,2.9-7.8,10.8-7.8,13.8V32.2z"/>
</g>
</svg>
